<svg width="355" height="310" viewBox="0 0 355 310" fill="none" xmlns="http://www.w3.org/2000/svg">
<g clip-path="url(#clip0)">
<path opacity="0.2" d="M321.385 111.474H300.896V122.109H321.385V111.474Z" fill="#E3C4A8"/>
<path opacity="0.2" d="M322.961 124.473H302.472V135.108H322.961V124.473Z" fill="#E3C4A8"/>
<path opacity="0.2" d="M306.018 34.2694H285.528V44.9047H306.018V34.2694Z" fill="#E3C4A8"/>
<path opacity="0.2" d="M320.597 46.4803H300.107V57.1156H320.597V46.4803Z" fill="#E3C4A8"/>
<path opacity="0.2" d="M281.194 35.0572H260.704V45.6925H281.194V35.0572Z" fill="#E3C4A8"/>
<path opacity="0.2" d="M346.997 58.6912H326.508V69.3265H346.997V58.6912Z" fill="#E3C4A8"/>
<path opacity="0.2" d="M322.173 59.479H301.684V70.1143H322.173V59.479Z" fill="#E3C4A8"/>
<path opacity="0.2" d="M295.773 47.2681H275.283V57.9035H295.773V47.2681Z" fill="#E3C4A8"/>
<path opacity="0.2" d="M345.815 140.623H325.325V151.258H345.815V140.623Z" fill="#E3C4A8"/>
<path opacity="0.2" d="M320.991 141.41H300.501V152.046H320.991V141.41Z" fill="#E3C4A8"/>
<path d="M51.5198 108.717C51.5198 108.717 80.3985 137.586 64.0973 180.407C47.7962 223.228 92.0382 294.496 92.0382 294.496C92.0382 294.496 91.5654 294.425 90.6867 294.272C31.3768 283.806 1.90712 215.996 34.9034 165.635C47.15 146.89 57.2136 124.922 51.5198 108.717Z" fill="#E3C4A8"/>
<path d="M51.5198 108.717C51.5198 108.717 67.821 144.105 51.5198 172.97C35.2187 201.835 48.7261 282.868 92.0422 294.496" stroke="#535461" stroke-width="2" stroke-miterlimit="10"/>
<path d="M0.0827637 225.477C0.0827637 225.477 33.0357 220.23 36.0383 249.753C39.0408 279.276 99.4066 283.368 99.4066 283.368C99.4066 283.368 99.0126 283.636 98.2758 284.121C48.4345 316.814 0.792023 304.954 7.97524 261.527C10.6428 245.381 10.4222 229.164 0.0827637 225.477Z" fill="#E3C4A8"/>
<path opacity="0.2" d="M0.0827637 225.477C0.0827637 225.477 33.0357 220.23 36.0383 249.753C39.0408 279.276 99.4066 283.368 99.4066 283.368C99.4066 283.368 99.0126 283.636 98.2758 284.121C48.4345 316.814 0.792023 304.954 7.97524 261.527C10.6428 245.381 10.4222 229.164 0.0827637 225.477Z" fill="#F5F5F5"/>
<path d="M0.0827637 225.477C0.0827637 225.477 25.6594 231.09 23.5592 254.338C21.4591 277.586 61.544 305.47 99.4066 283.368" stroke="#535461" stroke-width="2" stroke-miterlimit="10"/>
<path opacity="0.2" d="M20.738 111.868H0.248291V122.503H20.738V111.868Z" fill="#E3C4A8"/>
<path opacity="0.2" d="M35.3171 124.079H14.8274V134.714H35.3171V124.079Z" fill="#E3C4A8"/>
<path opacity="0.2" d="M146.04 0H125.551V10.6353H146.04V0Z" fill="#E3C4A8"/>
<path opacity="0.2" d="M307.594 196.163H287.104V206.798H307.594V196.163Z" fill="#E3C4A8"/>
<path opacity="0.2" d="M36.8933 137.078H16.4036V147.713H36.8933V137.078Z" fill="#E3C4A8"/>
<path opacity="0.2" d="M160.62 12.2109H140.13V22.8463H160.62V12.2109Z" fill="#E3C4A8"/>
<path opacity="0.2" d="M85.7534 84.2948H65.2637V94.9301H85.7534V84.2948Z" fill="#E3C4A8"/>
<path opacity="0.2" d="M100.333 96.5057H79.843V107.141H100.333V96.5057Z" fill="#E3C4A8"/>
<path opacity="0.2" d="M139.342 89.8094H118.852V100.445H139.342V89.8094Z" fill="#E3C4A8"/>
<path opacity="0.2" d="M101.909 109.504H81.4192V120.14H101.909V109.504Z" fill="#E3C4A8"/>
<path opacity="0.2" d="M335.176 196.163H314.687V206.798H335.176V196.163Z" fill="#E3C4A8"/>
<path d="M283.96 154.059C282.633 146.678 281.819 139.214 281.525 131.72C281.263 125.549 279.098 119.61 275.326 114.717C271.555 109.825 266.362 106.218 260.46 104.392C258.308 103.73 255.94 103.111 253.324 102.556C230.391 97.6874 223.424 101.938 222.632 102.497C221.962 101.278 221.378 100.013 220.887 98.7116C220.848 98.5777 220.812 98.4437 220.773 98.3177C225.311 93.4792 228.077 87.2464 228.618 80.6355C232.444 76.7595 234.678 72.0799 234.678 67.042C234.678 62.709 233.023 58.644 230.127 55.1265V48.2805C230.127 40.3857 226.99 32.8144 221.405 27.2319C215.821 21.6495 208.247 18.5134 200.35 18.5134H197.935C194.024 18.5134 190.152 19.2833 186.539 20.7793C182.927 22.2752 179.644 24.4678 176.879 27.2319C174.114 29.9961 171.921 33.2776 170.424 36.8891C168.928 40.5006 168.157 44.3714 168.157 48.2805V55.6582C165.529 59.0497 164.04 62.9218 164.04 67.0341C164.04 71.9657 166.183 76.5507 169.864 80.3794C170.366 87.2326 173.258 93.6921 178.036 98.6328C178.197 99.7515 178.363 100.953 178.524 102.221L137.506 110.883C137.506 110.883 121.689 111.533 111.499 132.548C102.882 150.348 85.7336 196.08 80.6545 209.693C79.7364 212.159 79.2163 213.573 79.2163 213.573C79.2163 213.573 79.3858 213.404 79.7049 213.112L79.2163 214.44C79.2163 214.44 79.4646 214.188 79.9374 213.774C79.2203 219.47 79.1178 229.25 86.5808 230.468C92.838 231.488 108.962 231.909 121.141 232.079H121.985C130.058 232.185 136.201 232.185 136.201 232.185V232.079H267.194V230.735C267.195 229.517 266.95 228.311 266.473 227.19L266.654 226.97C267.355 227.895 267.821 228.976 268.013 230.121C267.998 230.232 267.977 230.343 267.95 230.452L268.029 230.251C268.06 230.609 268.033 230.969 267.95 231.318C267.95 231.318 284.756 188.033 284.574 162.185C284.623 159.463 284.417 156.742 283.96 154.059ZM179.206 108.071C178.989 106.836 178.85 105.589 178.788 104.336C178.788 104.336 178.788 104.313 178.788 104.301C178.934 105.518 179.076 106.779 179.206 108.071ZM128.289 201.047V211.363L121.827 212.746L128.289 201.047Z" fill="url(#paint0_linear)"/>
<path d="M198.478 22.6769C206.376 22.6769 213.95 25.813 219.534 31.3955C225.118 36.9779 228.255 44.5493 228.255 52.444V65.1433H168.701V52.444C168.701 44.5493 171.838 36.9779 177.423 31.3955C183.007 25.813 190.581 22.6769 198.478 22.6769Z" fill="#E14B5A"/>
<path d="M198.687 92.6219C217.433 92.6219 232.629 82.1834 232.629 69.3069C232.629 56.4304 217.433 45.9919 198.687 45.9919C179.941 45.9919 164.745 56.4304 164.745 69.3069C164.745 82.1834 179.941 92.6219 198.687 92.6219Z" fill="#E14B5A"/>
<path d="M176.929 91.8931C176.929 91.8931 184.021 128.947 176.929 138.941C169.836 148.934 198.6 152.889 198.6 152.889L228.374 142.064L232.539 115.417C232.539 115.417 214.413 105.215 218.168 84.606L176.929 91.8931Z" fill="#F7C4A7"/>
<path d="M264.806 216.799C264.806 216.799 266.682 224.917 256.476 226.375C250.45 227.261 244.322 227.188 238.319 226.158L236.069 205.766H259.81L264.806 216.799Z" fill="#F7C4A7"/>
<path d="M84.5989 206.408C84.5989 206.408 80.0912 224.72 90.2966 226.375C100.502 228.029 137.975 228.041 137.975 228.041V206.377L121.008 210L105.081 194.733L84.5989 206.408Z" fill="#F7C4A7"/>
<path opacity="0.1" d="M179.119 103.864L139.239 112.293C139.239 112.293 124.038 112.92 114.25 133.111C104.462 153.302 83.2197 210.969 83.2197 210.969C83.2197 210.969 101.345 192.649 122.58 212.218L136.741 186.614L133.617 227.21H243.347V208.055C243.347 208.055 266.252 220.336 264.589 227.206C264.589 227.206 284.192 176.716 279.956 153.771C278.681 146.678 277.899 139.505 277.616 132.303C277.366 126.372 275.285 120.664 271.661 115.962C268.036 111.26 263.044 107.795 257.37 106.042C255.306 105.408 253.036 104.813 250.514 104.281C226.983 99.2866 220.962 104.281 220.962 104.281C220.962 104.281 216.403 119.108 216.486 125.828C216.588 134.466 204.2 140.193 204.2 140.193C204.2 140.193 185.873 135.821 185.042 132.284C184.21 128.746 177.654 108.027 179.119 103.864Z" fill="black"/>
<path d="M179.119 103.033L139.239 111.462C139.239 111.462 124.038 112.088 114.25 132.28C104.462 152.471 83.2158 210.146 83.2158 210.146C83.2158 210.146 101.341 191.826 122.576 211.395L136.737 185.791L133.613 226.375H243.347V207.223C243.347 207.223 266.252 219.505 264.589 226.375C264.589 226.375 284.192 175.885 279.956 152.94C278.681 145.847 277.899 138.674 277.616 131.472C277.366 125.541 275.285 119.833 271.661 115.131C268.036 110.429 263.044 106.964 257.371 105.211C255.306 104.577 253.036 103.982 250.514 103.45C226.983 98.4555 220.962 103.45 220.962 103.45C220.962 103.45 216.403 118.277 216.486 124.997C216.588 133.635 204.2 139.362 204.2 139.362C204.2 139.362 185.873 134.99 185.042 131.453C184.21 127.915 177.654 107.196 179.119 103.033Z" fill="#575988"/>
<path opacity="0.1" d="M219.87 101.264C218.195 96.5229 217.82 91.42 218.783 86.4849L177.543 93.7681C177.543 93.7681 178.138 96.8838 178.812 101.552C181.477 104.316 184.676 106.509 188.215 107.998C191.754 109.488 195.559 110.242 199.399 110.215C203.239 110.188 207.033 109.381 210.551 107.842C214.069 106.303 217.237 104.065 219.862 101.264H219.87Z" fill="black"/>
<path d="M226.904 80.0288C226.872 87.4573 223.92 94.5755 218.686 99.8486C213.452 105.122 206.354 108.127 198.924 108.217C191.493 108.307 184.325 105.474 178.965 100.329C173.605 95.1844 170.482 88.1397 170.27 80.7142C170.27 80.4858 170.27 80.2573 170.27 80.0288C170.268 74.7277 171.756 69.5326 174.562 65.0348C177.369 60.5369 181.382 56.917 186.145 54.5868C186.994 54.1719 187.866 53.799 188.761 53.4681C193.421 51.756 198.446 51.2889 203.341 52.1131C209.614 53.181 215.344 56.3313 219.606 61.0556C223.868 65.7798 226.413 71.802 226.829 78.1499C226.879 78.7723 226.904 79.3986 226.904 80.0288Z" fill="#F7C4A7"/>
<g opacity="0.1">
<path opacity="0.1" d="M188.718 54.1338L188.758 54.1102C187.862 54.441 186.99 54.8139 186.141 55.2289C181.378 57.559 177.365 61.179 174.558 65.6768C171.752 70.1747 170.264 75.3697 170.266 80.6709C170.266 80.8994 170.266 81.1278 170.266 81.3563C171.146 81.3325 172.012 81.1245 172.807 80.7457C179.711 77.5236 183.84 67.6682 185.479 60.7947C186.07 58.3328 186.626 55.5597 188.718 54.1338Z" fill="black"/>
<path opacity="0.1" d="M210.394 54.9255C208.152 53.8961 205.785 53.1663 203.353 52.7551C205.347 53.214 207.129 54.3327 208.408 55.93C209.035 56.7824 209.555 57.7084 209.957 58.6873C206.187 57.0399 202.105 56.2307 197.993 56.3157C193.88 56.4007 189.835 57.3779 186.137 59.1797C187.914 63.0753 193.427 65.1985 197.107 66.6204C201.137 68.175 205.208 69.597 209.322 70.8864L205.681 67.9321L213.905 69.2399C213.993 67.6038 213.799 65.9648 213.329 64.3949C214.906 65.6633 216.994 66.0887 218.704 67.1522C221.908 69.1729 223.243 73.0607 224.989 76.4286C225.45 77.3188 225.994 78.2287 226.825 78.792C226.489 73.7037 224.785 68.8004 221.893 64.5997C219.001 60.3991 215.028 57.0567 210.394 54.9255Z" fill="black"/>
</g>
<path d="M188.718 53.4918L188.758 53.4681C187.862 53.799 186.99 54.1719 186.141 54.5868C181.378 56.917 177.365 60.537 174.558 65.0348C171.752 69.5326 170.264 74.7277 170.266 80.0289C170.266 80.2573 170.266 80.4858 170.266 80.7143C171.146 80.6905 172.012 80.4825 172.807 80.1037C179.711 76.8816 183.84 67.0262 185.479 60.1526C186.07 57.7065 186.626 54.9216 188.718 53.4918Z" fill="#632652"/>
<path d="M210.394 54.2874C208.152 53.258 205.785 52.5282 203.353 52.117C205.347 52.5758 207.129 53.6945 208.408 55.2918C209.035 56.1442 209.555 57.0702 209.956 58.0492C206.187 56.4017 202.105 55.5926 197.993 55.6776C193.88 55.7626 189.835 56.7398 186.137 58.5415C187.914 62.4372 193.427 64.5603 197.107 65.9823C201.137 67.5369 205.208 68.9589 209.322 70.2483L205.681 67.294L213.905 68.6018C213.993 66.9657 213.799 65.3267 213.329 63.7568C214.906 65.0251 216.994 65.4506 218.704 66.5141C221.908 68.5348 223.243 72.4226 224.989 75.7905C225.45 76.6807 225.994 77.5906 226.825 78.1539C226.489 73.0655 224.785 68.1623 221.893 63.9616C219.001 59.7609 215.028 56.4186 210.394 54.2874Z" fill="#632652"/>
<path opacity="0.1" d="M167.035 75.3612C167.035 75.3612 196.193 39.1223 229.926 75.3612L227.01 67.2429C227.01 67.2429 211.182 44.1366 199.94 49.1234C188.699 54.1102 177.658 57.6593 177.658 57.6593L167.035 75.3612Z" fill="black"/>
<path d="M167.035 74.7191C167.035 74.7191 196.193 38.4802 229.926 74.7191L227.01 66.6008C227.01 66.6008 211.182 43.4946 199.94 48.4813C188.699 53.4681 177.658 57.0172 177.658 57.0172L167.035 74.7191Z" fill="#E14B5A"/>
<path opacity="0.1" d="M143.085 152.786C143.085 152.786 136.84 169.44 145.583 184.428C154.327 199.416 137.88 205.663 137.88 205.663" fill="black"/>
<path opacity="0.1" d="M244.293 137.798C244.293 137.798 255.121 151.538 248.04 163.819C240.959 176.101 241.377 205.664 241.377 205.664" fill="black"/>
<path d="M133.506 217.945H253.872C256.523 217.945 259.066 218.998 260.94 220.872C262.815 222.746 263.868 225.288 263.868 227.939H123.514C123.514 225.289 124.566 222.748 126.44 220.874C128.314 219 130.856 217.946 133.506 217.945Z" fill="#535461"/>
<path d="M145.753 149.245H241.629C243.647 149.245 245.645 149.642 247.51 150.414C249.374 151.187 251.068 152.318 252.495 153.745C253.922 155.171 255.054 156.865 255.826 158.728C256.599 160.592 256.996 162.59 256.996 164.607V220.234H130.385V164.607C130.385 160.533 132.005 156.626 134.886 153.745C137.768 150.864 141.677 149.245 145.753 149.245Z" fill="#535461"/>
<path d="M193.584 195.359C197.726 195.359 201.083 192.003 201.083 187.863C201.083 183.723 197.726 180.367 193.584 180.367C189.443 180.367 186.086 183.723 186.086 187.863C186.086 192.003 189.443 195.359 193.584 195.359Z" fill="white"/>
<path opacity="0.1" d="M168.701 58.3761C168.701 58.3761 197.355 29.7474 228.259 57.8522" stroke="black" stroke-miterlimit="10"/>
<path d="M235.498 56.5524H232.621V72.8559H235.498V56.5524Z" fill="#6A5C99"/>
<path d="M228.783 67.101C231.413 67.101 233.934 68.1452 235.793 70.0037C237.653 71.8623 238.697 74.3831 238.697 77.0116V77.6497C238.697 80.2781 237.653 82.7989 235.793 84.6575C233.934 86.5161 231.413 87.5602 228.783 87.5602V67.101Z" fill="#FFD037"/>
<path d="M231.341 68.3812C231.341 67.1456 230.339 66.1439 229.103 66.1439C227.867 66.1439 226.865 67.1456 226.865 68.3812V86.284C226.865 87.5197 227.867 88.5214 229.103 88.5214C230.339 88.5214 231.341 87.5197 231.341 86.284V68.3812Z" fill="#6A5C99"/>
<path d="M161.167 73.1749H164.044V56.8714H161.167V73.1749Z" fill="#6A5C99"/>
<path d="M167.882 87.8793C165.252 87.8793 162.731 86.8351 160.871 84.9765C159.012 83.118 157.968 80.5972 157.968 77.9687V77.3306C157.968 76.0291 158.224 74.7404 158.722 73.538C159.221 72.3356 159.951 71.2431 160.871 70.3228C161.792 69.4025 162.885 68.6725 164.088 68.1745C165.291 67.6764 166.58 67.4201 167.882 67.4201V87.8793Z" fill="#FFD037"/>
<path d="M165.325 86.5991C165.325 87.8347 166.327 88.8364 167.563 88.8364C168.799 88.8364 169.801 87.8347 169.801 86.5991V68.6963C169.801 67.4606 168.799 66.4589 167.563 66.4589C166.327 66.4589 165.325 67.4606 165.325 68.6963V86.5991Z" fill="#6A5C99"/>
<path d="M232.282 39.1262C228.385 31.0276 219.898 21.2352 201.603 20.4514V20.4277H201.382L194.9 20.735V20.7665C176.728 21.6016 168.28 31.3585 164.394 39.4295C161.807 44.901 160.433 50.867 160.367 56.9187L162.606 56.8636L164.844 56.8124C164.94 51.4245 166.18 46.1186 168.481 41.2454C173.414 31.1143 182.492 25.7296 195.46 25.2294L201.193 24.9103C214.169 25.4066 223.251 30.7991 228.181 40.9263C230.485 45.8014 231.727 51.1101 231.825 56.5012L234.063 56.5524L236.302 56.6075C236.237 50.559 234.866 44.5959 232.282 39.1262Z" fill="#FFD037"/>
<path d="M334.53 228.069H29.2688V310H334.53V228.069Z" fill="#D6D6E3"/>
<path opacity="0.1" d="M334.53 233.583H29.2688V244.219H334.53V233.583Z" fill="black"/>
<path d="M355 226.887H8.79077V237.522H355V226.887Z" fill="#D6D6E3"/>
</g>
<defs>
<linearGradient id="paint0_linear" x1="181.897" y1="232.205" x2="181.897" y2="18.5134" gradientUnits="userSpaceOnUse">
<stop stop-color="#808080" stop-opacity="0.25"/>
<stop offset="0.54" stop-color="#808080" stop-opacity="0.12"/>
<stop offset="1" stop-color="#808080" stop-opacity="0.1"/>
</linearGradient>
<clipPath id="clip0">
<rect width="355" height="310" fill="white"/>
</clipPath>
</defs>
</svg>
