<svg width="59" height="59" viewBox="0 0 59 59" fill="none" xmlns="http://www.w3.org/2000/svg">
<g clip-path="url(#clip0)">
<path d="M29.3768 58.9989C45.4331 58.9989 58.4492 45.9827 58.4492 29.9265C58.4492 13.8702 45.4331 0.854004 29.3768 0.854004C13.3205 0.854004 0.304321 13.8702 0.304321 29.9265C0.304321 45.9827 13.3205 58.9989 29.3768 58.9989Z" fill="#007AB9"/>
<path d="M46.7473 32.2664V44.2523H39.7982V33.0696C39.7982 30.2618 38.7948 28.3443 36.2788 28.3443C34.3587 28.3443 33.218 29.6352 32.7143 30.8852C32.5313 31.332 32.4842 31.9523 32.4842 32.5789V44.2518H25.5345C25.5345 44.2518 25.6278 25.312 25.5345 23.3515H32.4847V26.3133C32.4707 26.3366 32.451 26.3594 32.4386 26.3817H32.4847V26.3133C33.4082 24.8923 35.0552 22.8607 38.7477 22.8607C43.3196 22.8607 46.7473 25.8479 46.7473 32.2664ZM18.2646 13.2769C15.8874 13.2769 14.3322 14.8373 14.3322 16.8875C14.3322 18.8941 15.8423 20.4996 18.1734 20.4996H18.2185C20.6423 20.4996 22.1493 18.8941 22.1493 16.8875C22.1032 14.8373 20.6423 13.2769 18.2646 13.2769ZM14.7452 44.2523H21.6923V23.3515H14.7452V44.2523Z" fill="#F1F2F2"/>
</g>
<defs>
<clipPath id="clip0">
<rect width="58.1449" height="58.1449" fill="white" transform="translate(0.304321 0.85498)"/>
</clipPath>
</defs>
</svg>
