<svg width="160" height="160" viewBox="0 0 160 160" fill="none" xmlns="http://www.w3.org/2000/svg">
<rect width="160" height="160" rx="80" fill="white"/>
<mask id="mask0" mask-type="alpha" maskUnits="userSpaceOnUse" x="39" y="37" width="82" height="99">
<path d="M89.6363 95.8894V103.311H91.2423C107.208 103.311 120.151 116.32 120.151 132.368V136H39.8484V132.368C39.8484 116.32 52.7914 103.311 68.7575 103.311H70.3635V95.8894C63.4425 92.5847 58.4675 85.8308 57.6376 77.8378C55.2988 77.5055 53.4999 75.4853 53.4999 73.0428V67.3928C53.4999 64.9932 55.2363 63.0012 57.5151 62.617V60.1286C57.5151 47.6469 67.5819 37.5286 79.9999 37.5286C92.4179 37.5286 102.485 47.6469 102.485 60.1286V62.617C104.764 63.0012 106.5 64.9932 106.5 67.3928V73.0428C106.5 75.4853 104.701 77.5055 102.362 77.8378C101.532 85.8308 96.5573 92.5847 89.6363 95.8894Z" fill="white"/>
</mask>
<g mask="url(#mask0)">
<path d="M89.6363 95.8894V103.311H91.2423C107.208 103.311 120.151 116.32 120.151 132.368V136H39.8484V132.368C39.8484 116.32 52.7914 103.311 68.7575 103.311H70.3635V95.8894C63.4425 92.5847 58.4675 85.8308 57.6376 77.8378C55.2988 77.5055 53.4999 75.4853 53.4999 73.0428V67.3928C53.4999 64.9932 55.2363 63.0012 57.5151 62.617V60.1286C57.5151 47.6469 67.5819 37.5286 79.9999 37.5286C92.4179 37.5286 102.485 47.6469 102.485 60.1286V62.617C104.764 63.0012 106.5 64.9932 106.5 67.3928V73.0428C106.5 75.4853 104.701 77.5055 102.362 77.8378C101.532 85.8308 96.5573 92.5847 89.6363 95.8894Z" fill="#D0C6AC"/>
<path d="M133 37.5286H27V136H133V37.5286Z" fill="#D08B5B"/>
<path fill-rule="evenodd" clip-rule="evenodd" d="M102.485 69.4106V78.6928C102.485 91.1744 92.418 101.293 80 101.293C67.5819 101.293 57.5151 91.1744 57.5151 78.6928V69.4106V75.4642C57.5151 87.9458 67.5819 98.0642 80 98.0642C92.418 98.0642 102.485 87.9458 102.485 75.4642V69.4106Z" fill="black" fill-opacity="0.1"/>
</g>
<mask id="mask1" mask-type="alpha" maskUnits="userSpaceOnUse" x="39" y="96" width="82" height="41">
<path fill-rule="evenodd" clip-rule="evenodd" d="M70.3635 96.8823C63.1689 97.6915 57.6274 99.9014 57.5167 105.589C47.1345 109.997 39.8484 120.327 39.8484 132.368V136H120.151V132.368C120.151 120.327 112.865 109.997 102.483 105.589C102.372 99.9014 96.8309 97.6915 89.6363 96.8823V104.522C89.6363 109.871 85.3219 114.207 79.9999 114.207C74.6779 114.207 70.3635 109.871 70.3635 104.522V96.8823Z" fill="white"/>
</mask>
<g mask="url(#mask1)">
<path fill-rule="evenodd" clip-rule="evenodd" d="M70.3635 96.8823C63.1689 97.6915 57.6274 99.9014 57.5167 105.589C47.1345 109.997 39.8484 120.327 39.8484 132.368V136H120.151V132.368C120.151 120.327 112.865 109.997 102.483 105.589C102.372 99.9014 96.8309 97.6915 89.6363 96.8823V104.522C89.6363 109.871 85.3219 114.207 79.9999 114.207C74.6779 114.207 70.3635 109.871 70.3635 104.522V96.8823Z" fill="#B7C1DB"/>
<path d="M133 91.6072H27V136H133V91.6072Z" fill="#3C4F5C"/>
<path fill-rule="evenodd" clip-rule="evenodd" d="M67.9544 116.524V136H65.1438V115.075C66.0286 115.604 66.9694 116.088 67.9544 116.524ZM94.8559 115.075V131.359C94.8559 132.139 94.2267 132.772 93.4506 132.772C92.6745 132.772 92.0453 132.139 92.0453 131.359V116.524C93.0303 116.088 93.9711 115.604 94.8559 115.075Z" fill="#F4F4F4"/>
<path fill-rule="evenodd" clip-rule="evenodd" d="M63.5217 96.7424C57.4786 97.8913 53.2991 100.18 53.2991 104.646C53.2991 112.601 66.5642 119.05 79.9998 119.05C93.4354 119.05 106.701 112.601 106.701 104.646C106.701 100.18 102.521 97.8913 96.478 96.7424C100.126 98.0944 102.485 100.367 102.485 104.149C102.485 112.379 91.314 119.05 79.9998 119.05C68.6856 119.05 57.515 112.379 57.515 104.149C57.515 100.367 59.8739 98.0944 63.5217 96.7424Z" fill="black" fill-opacity="0.16"/>
</g>
<mask id="mask2" mask-type="alpha" maskUnits="userSpaceOnUse" x="72" y="82" width="16" height="8">
<path fill-rule="evenodd" clip-rule="evenodd" d="M72.4184 83.1838C72.8431 87.0144 76.0755 89.9928 79.9999 89.9928C83.9364 89.9928 87.1765 86.9959 87.5852 83.1483C87.6181 82.8386 87.274 82.325 86.8428 82.325C80.8626 82.325 76.281 82.325 73.209 82.325C72.7753 82.325 72.3759 82.8005 72.4184 83.1838Z" fill="white"/>
</mask>
<g mask="url(#mask2)">
<path fill-rule="evenodd" clip-rule="evenodd" d="M72.4184 83.1838C72.8431 87.0144 76.0755 89.9928 79.9999 89.9928C83.9364 89.9928 87.1765 86.9959 87.5852 83.1483C87.6181 82.8386 87.274 82.325 86.8428 82.325C80.8626 82.325 76.281 82.325 73.209 82.325C72.7753 82.325 72.3759 82.8005 72.4184 83.1838Z" fill="black" fill-opacity="0.7"/>
<path d="M84.4164 77.8857H75.9846C74.8759 77.8857 73.9771 78.7892 73.9771 79.9036V82.325C73.9771 83.4395 74.8759 84.3429 75.9846 84.3429H84.4164C85.5252 84.3429 86.424 83.4395 86.424 82.325V79.9036C86.424 78.7892 85.5252 77.8857 84.4164 77.8857Z" fill="white"/>
<path d="M77.9923 95.6427C80.4316 95.6427 82.409 93.6552 82.409 91.2034C82.409 88.7517 80.4316 86.7642 77.9923 86.7642C75.5531 86.7642 73.5757 88.7517 73.5757 91.2034C73.5757 93.6552 75.5531 95.6427 77.9923 95.6427Z" fill="#FF4F6D"/>
<path d="M82.0075 95.6427C84.4467 95.6427 86.4242 93.6552 86.4242 91.2034C86.4242 88.7517 84.4467 86.7642 82.0075 86.7642C79.5682 86.7642 77.5908 88.7517 77.5908 91.2034C77.5908 93.6552 79.5682 95.6427 82.0075 95.6427Z" fill="#FF4F6D"/>
</g>
<path fill-rule="evenodd" clip-rule="evenodd" d="M75.1819 75.4641C75.1819 77.2472 77.3391 78.6927 80.0001 78.6927C82.6611 78.6927 84.8183 77.2472 84.8183 75.4641" fill="black" fill-opacity="0.16"/>
<path d="M69.5605 70.6214C70.891 70.6214 71.9696 69.5373 71.9696 68.2C71.9696 66.8627 70.891 65.7786 69.5605 65.7786C68.23 65.7786 67.1514 66.8627 67.1514 68.2C67.1514 69.5373 68.23 70.6214 69.5605 70.6214Z" fill="black" fill-opacity="0.6"/>
<path d="M90.4391 70.6214C91.7696 70.6214 92.8482 69.5373 92.8482 68.2C92.8482 66.8627 91.7696 65.7786 90.4391 65.7786C89.1086 65.7786 88.03 66.8627 88.03 68.2C88.03 69.5373 89.1086 70.6214 90.4391 70.6214Z" fill="black" fill-opacity="0.6"/>
<path fill-rule="evenodd" clip-rule="evenodd" d="M68.1743 58.5741C65.8427 58.6824 62.0732 60.3853 62.1703 62.7486C62.1735 62.8259 62.2866 62.8599 62.3418 62.8004C63.4479 61.6061 71.3017 60.3993 74.068 61.0388C74.3212 61.0974 74.5135 60.8464 74.3532 60.665C72.9791 59.112 70.2631 58.4751 68.1743 58.5741Z" fill="black" fill-opacity="0.6"/>
<path fill-rule="evenodd" clip-rule="evenodd" d="M92.2271 58.5741C94.5587 58.6824 98.3282 60.3853 98.2311 62.7486C98.2278 62.8259 98.1148 62.8599 98.0596 62.8004C96.9534 61.6061 89.0996 60.3993 86.3334 61.0388C86.0802 61.0974 85.8878 60.8464 86.0482 60.665C87.4222 59.112 90.1382 58.4751 92.2271 58.5741Z" fill="black" fill-opacity="0.6"/>
<mask id="mask3" mask-type="alpha" maskUnits="userSpaceOnUse" x="27" y="23" width="106" height="113">
<path d="M133 23H27V136H133V23Z" fill="white"/>
</mask>
<g mask="url(#mask3)">
<mask id="mask4" mask-type="alpha" maskUnits="userSpaceOnUse" x="55" y="30" width="48" height="34">
<path fill-rule="evenodd" clip-rule="evenodd" d="M101.614 52.8354C102.32 53.2344 102.879 57.234 102.906 58.7634C102.922 59.7072 102.938 63.3062 101.945 62.9951C101.642 62.9003 101.181 60.995 101.115 59.8799C101.049 58.7647 100.419 54.9708 99.4522 53.2252C99.2313 52.8264 98.5986 52.126 98.8719 51.7886C99.211 51.3702 99.5403 51.6129 99.9543 51.7804C100.402 51.9618 101.535 52.7907 101.614 52.8354ZM101.938 51.6359C101.638 52.0242 99.5924 50.9342 98.7393 50.4605C91.574 46.4813 90.1831 45.2159 78.8942 45.3811C67.6053 45.5462 59.8711 50.8624 59.4361 51.4062C59.1334 51.7846 58.747 52.7947 58.4293 55.6087C58.1115 58.4226 58.5171 63.4691 57.3669 63.463C56.3876 63.4578 56.1745 53.8638 56.5973 50.0579C56.6622 49.4735 56.9123 48.4283 56.7313 47.9026C56.573 47.4435 55.7989 47.4444 55.9225 46.6794C56.0629 45.8087 56.9364 46.2412 57.3169 45.8248C58.0374 45.0361 56.9259 44.8494 56.7415 44.1594C56.4675 43.1337 57.2594 42.8692 57.9728 42.5453C58.7623 42.1872 58.6598 42.5017 59.3005 41.8002C58.4447 41.1697 58.135 40.3106 59.307 39.8498C59.8047 39.654 61.0995 39.9131 61.4895 39.619C61.5911 39.5423 61.6314 39.1027 61.694 39.0128C62.3167 38.1174 62.1631 37.4692 62.0999 36.464C62.0479 35.6414 62.0549 34.8863 63.0347 34.8042C63.6886 34.7494 64.2203 35.2863 64.8061 35.4443C65.4559 35.6198 65.2118 35.7478 65.721 35.3956C66.6148 34.7768 66.0065 33.5711 66.7153 32.8519C67.688 31.8648 68.3256 33.3116 69.1065 33.4208C70.8019 33.6583 70.2578 31.9276 71.2615 31.2935C72.4611 30.5361 72.5772 32.2018 73.3264 32.2611C73.9758 32.3123 75.1448 31.0529 75.7108 30.8183C77.3902 30.1218 78.2223 32.0818 79.821 31.8318C80.9811 31.6504 81.2943 31.5022 82.3412 32.1656C83.3574 32.8095 83.5989 32.3492 84.7496 32.34C85.5626 32.3338 86.0606 33.0166 86.7406 33.0878C87.0798 33.1235 87.4045 32.7683 87.7684 32.7907C89.0683 32.8699 89.1505 34.5594 90.1831 35.0245C91.1267 35.4496 92.236 34.8524 93.1724 34.7419C95.4572 34.4724 93.8926 36.6174 93.9571 37.8976C94.8539 38.1079 95.7642 37.2665 96.657 37.4214C98.0629 37.6654 97.5322 39.1298 97.2064 40.1171C98.1805 40.0995 100.723 39.0126 101.355 40.4027C101.68 41.1194 100.922 42.0763 100.934 42.8049C100.952 43.8306 101.701 44.6792 101.967 45.6499C102.325 46.9603 102.835 50.4726 101.938 51.6359Z" fill="white"/>
</mask>
<g mask="url(#mask4)">
<path fill-rule="evenodd" clip-rule="evenodd" d="M101.614 52.8354C102.32 53.2344 102.879 57.234 102.906 58.7634C102.922 59.7072 102.938 63.3062 101.945 62.9951C101.642 62.9003 101.181 60.995 101.115 59.8799C101.049 58.7647 100.419 54.9708 99.4522 53.2252C99.2313 52.8264 98.5986 52.126 98.8719 51.7886C99.211 51.3702 99.5403 51.6129 99.9543 51.7804C100.402 51.9618 101.535 52.7907 101.614 52.8354ZM101.938 51.6359C101.638 52.0242 99.5924 50.9342 98.7393 50.4605C91.574 46.4813 90.1831 45.2159 78.8942 45.3811C67.6053 45.5462 59.8711 50.8624 59.4361 51.4062C59.1334 51.7846 58.747 52.7947 58.4293 55.6087C58.1115 58.4226 58.5171 63.4691 57.3669 63.463C56.3876 63.4578 56.1745 53.8638 56.5973 50.0579C56.6622 49.4735 56.9123 48.4283 56.7313 47.9026C56.573 47.4435 55.7989 47.4444 55.9225 46.6794C56.0629 45.8087 56.9364 46.2412 57.3169 45.8248C58.0374 45.0361 56.9259 44.8494 56.7415 44.1594C56.4675 43.1337 57.2594 42.8692 57.9728 42.5453C58.7623 42.1872 58.6598 42.5017 59.3005 41.8002C58.4447 41.1697 58.135 40.3106 59.307 39.8498C59.8047 39.654 61.0995 39.9131 61.4895 39.619C61.5911 39.5423 61.6314 39.1027 61.694 39.0128C62.3167 38.1174 62.1631 37.4692 62.0999 36.464C62.0479 35.6414 62.0549 34.8863 63.0347 34.8042C63.6886 34.7494 64.2203 35.2863 64.8061 35.4443C65.4559 35.6198 65.2118 35.7478 65.721 35.3956C66.6148 34.7768 66.0065 33.5711 66.7153 32.8519C67.688 31.8648 68.3256 33.3116 69.1065 33.4208C70.8019 33.6583 70.2578 31.9276 71.2615 31.2935C72.4611 30.5361 72.5772 32.2018 73.3264 32.2611C73.9758 32.3123 75.1448 31.0529 75.7108 30.8183C77.3902 30.1218 78.2223 32.0818 79.821 31.8318C80.9811 31.6504 81.2943 31.5022 82.3412 32.1656C83.3574 32.8095 83.5989 32.3492 84.7496 32.34C85.5626 32.3338 86.0606 33.0166 86.7406 33.0878C87.0798 33.1235 87.4045 32.7683 87.7684 32.7907C89.0683 32.8699 89.1505 34.5594 90.1831 35.0245C91.1267 35.4496 92.236 34.8524 93.1724 34.7419C95.4572 34.4724 93.8926 36.6174 93.9571 37.8976C94.8539 38.1079 95.7642 37.2665 96.657 37.4214C98.0629 37.6654 97.5322 39.1298 97.2064 40.1171C98.1805 40.0995 100.723 39.0126 101.355 40.4027C101.68 41.1194 100.922 42.0763 100.934 42.8049C100.952 43.8306 101.701 44.6792 101.967 45.6499C102.325 46.9603 102.835 50.4726 101.938 51.6359Z" fill="#2E3257"/>
<path d="M133 23H27V136H133V23Z" fill="#2C1B18"/>
</g>
</g>
</svg>
