<svg width="57" height="58" viewBox="0 0 57 58" fill="none" xmlns="http://www.w3.org/2000/svg">
<g clip-path="url(#clip0)">
<path d="M28.2181 57.2893C43.802 57.2893 56.4353 44.656 56.4353 29.0721C56.4353 13.4882 43.802 0.85498 28.2181 0.85498C12.6342 0.85498 0.000976562 13.4882 0.000976562 29.0721C0.000976562 44.656 12.6342 57.2893 28.2181 57.2893Z" fill="#55ACEE"/>
<path d="M45.5016 21.1338C44.2924 21.67 42.9916 22.0326 41.6275 22.1946C43.0203 21.3601 44.0892 20.0398 44.5937 18.4639C43.2904 19.237 41.8463 19.7978 40.3107 20.1001C39.0803 18.7898 37.3274 17.9709 35.3863 17.9709C31.6621 17.9709 28.6416 20.9914 28.6416 24.7156C28.6416 25.2443 28.7015 25.7589 28.8172 26.2528C23.2118 25.9716 18.2417 23.2866 14.9148 19.2048C14.3344 20.2007 14.0014 21.3601 14.0014 22.596C14.0014 24.9354 15.193 27.0008 17.0018 28.21C15.8967 28.1753 14.856 27.8719 13.9471 27.3654C13.9466 27.3941 13.9466 27.4228 13.9466 27.4509C13.9466 30.7189 16.2724 33.4447 19.3573 34.0638C18.7919 34.2188 18.1949 34.3008 17.5807 34.3008C17.1451 34.3008 16.7231 34.259 16.3117 34.1805C17.1698 36.8595 19.6601 38.8096 22.6122 38.8644C20.3035 40.6737 17.3956 41.7516 14.2348 41.7516C13.6916 41.7516 13.1533 41.72 12.6267 41.6571C15.61 43.5715 19.1561 44.6876 22.9648 44.6876C35.3707 44.6876 42.1552 34.4104 42.1552 25.4968C42.1552 25.2046 42.1486 24.9133 42.1355 24.6246C43.4544 23.6739 44.5977 22.4864 45.5016 21.1338Z" fill="#F1F2F2"/>
</g>
<defs>
<clipPath id="clip0">
<rect width="56.4348" height="56.4348" fill="white" transform="translate(0 0.85498)"/>
</clipPath>
</defs>
</svg>
